<svg width="2341" height="896" viewBox="0 0 2341 896" fill="none" xmlns="http://www.w3.org/2000/svg">
<path d="M0 828H1458.55C1645.35 819.832 2057.02 689.486 2209.32 233.443C2361.62 -222.6 2435.01 136.633 2452.67 373.254L2478 394.154" stroke="#54A3C0" stroke-opacity="0.5" stroke-width="5"/>
<path d="M0 858H1458.55C1645.35 850.043 2057.02 723.06 2209.32 278.782C2361.62 -165.496 2435.01 184.469 2452.67 414.986L2478 435.346" stroke="#54A3C0" stroke-opacity="0.75" stroke-width="10"/>
<path d="M0 888H1458.55C1645.35 880.545 2057.02 761.568 2209.32 345.303C2361.62 -70.9625 2435.01 256.936 2452.67 472.919L2478 491.995" stroke="#54A3C0" stroke-width="15"/>
<ellipse cx="1905.5" cy="290.5" rx="59.5" ry="58.5" fill="#50879B" fill-opacity="0.5"/>
<ellipse cx="1757.5" cy="412" rx="37.5" ry="35" fill="#9EC7D6" fill-opacity="0.5"/>
<circle cx="1734" cy="82" r="82" fill="#B0E5F8" fill-opacity="0.5"/>
</svg>
